<?xml version="1.0" encoding="UTF-8" standalone="no"?>
<!DOCTYPE svg PUBLIC "-//W3C//DTD SVG 1.1//EN" "http://www.w3.org/Graphics/SVG/1.1/DTD/svg11.dtd">
<!-- Created with Vectornator (http://vectornator.io/) -->
<svg height="100%" stroke-miterlimit="10" style="fill-rule:nonzero;clip-rule:evenodd;stroke-linecap:round;stroke-linejoin:round;" version="1.1" viewBox="33.2595 33.2939 193.298 44.2395" width="100%" xml:space="preserve" xmlns="http://www.w3.org/2000/svg" xmlns:vectornator="http://vectornator.io" xmlns:xlink="http://www.w3.org/1999/xlink">
<defs/>
<g id="Layer-4" vectornator:layerName="Layer 4">
<path d="M33.2595 41.6315C33.2595 37.0267 36.9924 33.2939 41.5972 33.2939L218.219 33.2939C222.824 33.2939 226.557 37.0267 226.557 41.6315L226.557 69.1958C226.557 73.8005 222.824 77.5334 218.219 77.5334L41.5972 77.5334C36.9924 77.5334 33.2595 73.8005 33.2595 69.1958L33.2595 41.6315Z" fill="#ebeeef" fill-rule="nonzero" opacity="1" stroke="none" vectornator:layerName="Rectangle 10"/>
<path d="M40.1448 40.1935L65.8912 40.1935L65.8912 70.481L40.1448 70.481L40.1448 40.1935Z" fill="none" opacity="1" stroke="#595a5b" stroke-linecap="butt" stroke-linejoin="round" stroke-width="2.54534" vectornator:layerName="Rectangle 19"/>
<path d="M42.8548 63.6468L63.245 63.6076" fill="none" opacity="1" stroke="#595a5b" stroke-linecap="butt" stroke-linejoin="round" stroke-width="2.54617" vectornator:layerName="Line 5"/>
<path d="M42.9306 58.133L63.3208 58.0937" fill="none" opacity="1" stroke="#595a5b" stroke-linecap="butt" stroke-linejoin="round" stroke-width="2.54617" vectornator:layerName="Line 11"/>
<path d="M42.9352 52.5614L63.3254 52.5222" fill="none" opacity="1" stroke="#595a5b" stroke-linecap="butt" stroke-linejoin="round" stroke-width="2.54617" vectornator:layerName="Line 10"/>
<path d="M42.9143 47.0577L63.3045 47.0184" fill="none" opacity="1" stroke="#595a5b" stroke-linecap="butt" stroke-linejoin="round" stroke-width="2.54617" vectornator:layerName="Line 9"/>
<g fill="#595a5b" opacity="1" stroke="none" vectornator:layerName="Text 1">
<path d="M79.2457 60.2898C78.5724 61.4282 77.3574 61.9975 75.6007 61.9975C73.8441 61.9975 72.6658 61.5369 72.066 60.6157C71.4661 59.6945 71.1662 58.4382 71.1662 56.8468L71.1662 56.5347L73.8379 56.5347L73.8379 56.8468C73.8624 57.8935 73.9772 58.6295 74.1822 59.0549C74.3873 59.4803 74.8264 59.693 75.4997 59.693C76.1669 59.693 76.6076 59.4604 76.8218 58.9952C76.9504 58.7198 77.0146 58.2546 77.0146 57.5997L77.0146 48.1339L79.8424 48.1339L79.8424 57.5538C79.8424 58.7045 79.6435 59.6165 79.2457 60.2898Z"/>
<path d="M90.7773 52.9264C91.6219 53.9853 92.0443 55.237 92.0443 56.6816C92.0443 58.1505 91.6219 59.4068 90.7773 60.4504C89.9326 61.494 88.6503 62.0158 86.9303 62.0158C85.2104 62.0158 83.9281 61.494 83.0834 60.4504C82.2387 59.4068 81.8164 58.1505 81.8164 56.6816C81.8164 55.237 82.2387 53.9853 83.0834 52.9264C83.9281 51.8675 85.2104 51.3381 86.9303 51.3381C88.6503 51.3381 89.9326 51.8675 90.7773 52.9264ZM88.6839 54.3587C88.2738 53.8201 87.6862 53.5508 86.9211 53.5508C86.156 53.5508 85.5669 53.8216 85.1538 54.3633C84.7406 54.905 84.534 55.6777 84.534 56.6816C84.534 57.6854 84.7406 58.4596 85.1538 59.0044C85.5669 59.5491 86.156 59.8215 86.9211 59.8215C87.6862 59.8215 88.2738 59.5491 88.6839 59.0044C89.094 58.4596 89.2991 57.6854 89.2991 56.6816C89.2991 55.6777 89.094 54.9035 88.6839 54.3587Z"/>
<path d="M100.225 57.1039L100.225 51.6594L102.878 51.6594L102.878 61.6669L100.335 61.6669L100.335 60.253C100.31 60.2836 100.249 60.3755 100.151 60.5285C100.053 60.6815 99.937 60.8162 99.8024 60.9324C99.3923 61.2997 98.996 61.5506 98.6134 61.6853C98.2309 61.82 97.7825 61.8873 97.2684 61.8873C95.7871 61.8873 94.7894 61.3548 94.2753 60.2898C93.9876 59.7022 93.8438 58.8361 93.8438 57.6915L93.8438 51.6594L96.5247 51.6594L96.5247 57.6915C96.5247 58.2607 96.592 58.6892 96.7267 58.9769C96.9654 59.4849 97.4336 59.7389 98.1314 59.7389C99.025 59.7389 99.6371 59.3778 99.9676 58.6555C100.139 58.2638 100.225 57.7466 100.225 57.1039Z"/>
<path d="M110.746 54.0833C110.618 54.0772 110.514 54.0741 110.434 54.0741C109.381 54.0741 108.674 54.4169 108.313 55.1024C108.111 55.488 108.01 56.0817 108.01 56.8835L108.01 61.6669L105.375 61.6669L105.375 51.6594L107.873 51.6594L107.873 53.4039C108.277 52.7367 108.629 52.2807 108.928 52.0359C109.418 51.6258 110.055 51.4207 110.838 51.4207C110.887 51.4207 110.928 51.4223 110.962 51.4253C110.996 51.4284 111.071 51.433 111.187 51.4391L111.187 54.12C111.022 54.1016 110.875 54.0894 110.746 54.0833Z"/>
<path d="M120.809 52.2287C121.464 52.7734 121.791 53.6732 121.791 54.9279L121.791 61.6669L119.11 61.6669L119.11 55.5798C119.11 55.0534 119.04 54.6494 118.899 54.3679C118.642 53.8537 118.153 53.5967 117.43 53.5967C116.543 53.5967 115.934 53.9731 115.603 54.726C115.432 55.1238 115.346 55.6318 115.346 56.25L115.346 61.6669L112.739 61.6669L112.739 51.6778L115.264 51.6778L115.264 53.1376C115.6 52.6235 115.918 52.2532 116.218 52.0267C116.757 51.6227 117.439 51.4207 118.266 51.4207C119.3 51.4207 120.148 51.69 120.809 52.2287Z"/>
<path d="M124.95 56.3327C125.47 56.0327 126.235 55.8185 127.245 55.69L128.136 55.5798C128.619 55.5186 128.965 55.4421 129.173 55.3503C129.546 55.1911 129.733 54.9432 129.733 54.6066C129.733 54.1965 129.591 53.9134 129.306 53.7573C129.022 53.6013 128.604 53.5232 128.053 53.5232C127.435 53.5232 126.997 53.6762 126.74 53.9823C126.556 54.2087 126.434 54.5148 126.373 54.9004L123.848 54.9004C123.903 54.0251 124.148 53.3059 124.582 52.7428C125.274 51.8614 126.462 51.4207 128.145 51.4207C129.24 51.4207 130.214 51.638 131.064 52.0726C131.915 52.5072 132.341 53.3274 132.341 54.5332L132.341 59.1238C132.341 59.442 132.347 59.8276 132.359 60.2806C132.377 60.6233 132.429 60.8559 132.515 60.9784C132.601 61.1008 132.729 61.2018 132.901 61.2813L132.901 61.6669L130.054 61.6669C129.975 61.465 129.92 61.2752 129.889 61.0977C129.859 60.9202 129.834 60.7182 129.816 60.4918C129.455 60.8835 129.038 61.2171 128.567 61.4925C128.004 61.8169 127.367 61.9791 126.657 61.9791C125.752 61.9791 125.003 61.7205 124.413 61.2033C123.822 60.6861 123.527 59.9531 123.527 59.0044C123.527 57.7741 124.001 56.8835 124.95 56.3327ZM128.989 59.5828C129.461 59.2523 129.706 58.6494 129.724 57.7741L129.724 56.8009C129.559 56.905 129.392 56.9891 129.224 57.0534C129.055 57.1177 128.824 57.1773 128.53 57.2324L127.943 57.3426C127.392 57.4405 126.997 57.5599 126.758 57.7007C126.354 57.9394 126.152 58.3097 126.152 58.8116C126.152 59.2584 126.276 59.5813 126.524 59.7802C126.772 59.9791 127.074 60.0786 127.429 60.0786C127.992 60.0786 128.512 59.9133 128.989 59.5828Z"/>
<path d="M134.718 48.1339L137.335 48.1339L137.335 61.6669L134.718 61.6669L134.718 48.1339Z"/>
<path d="M143.875 47.9407L146.225 47.9407L140.904 64.6566L138.554 64.6566L143.875 47.9407Z"/>
<path d="M157.773 50.1445C158.244 50.8178 158.565 51.5462 158.737 52.3297C158.908 53.1131 158.994 53.8599 158.994 54.5699C158.994 56.3694 158.633 57.8935 157.91 59.1421C156.931 60.8253 155.419 61.6669 153.375 61.6669L147.545 61.6669L147.545 48.1339L153.375 48.1339C154.213 48.1461 154.911 48.244 155.468 48.4277C156.417 48.7398 157.185 49.3121 157.773 50.1445ZM155.477 51.586C155.043 50.8515 154.183 50.4842 152.897 50.4842L150.29 50.4842L150.29 59.3166L152.897 59.3166C154.232 59.3166 155.162 58.6586 155.688 57.3426C155.976 56.6203 156.12 55.7604 156.12 54.7627C156.12 53.3855 155.906 52.3266 155.477 51.586Z"/>
<path d="M169.258 52.9264C170.103 53.9853 170.525 55.237 170.525 56.6816C170.525 58.1505 170.103 59.4068 169.258 60.4504C168.414 61.494 167.131 62.0158 165.411 62.0158C163.691 62.0158 162.409 61.494 161.564 60.4504C160.72 59.4068 160.297 58.1505 160.297 56.6816C160.297 55.237 160.72 53.9853 161.564 52.9264C162.409 51.8675 163.691 51.3381 165.411 51.3381C167.131 51.3381 168.414 51.8675 169.258 52.9264ZM167.165 54.3587C166.755 53.8201 166.167 53.5508 165.402 53.5508C164.637 53.5508 164.048 53.8216 163.635 54.3633C163.222 54.905 163.015 55.6777 163.015 56.6816C163.015 57.6854 163.222 58.4596 163.635 59.0044C164.048 59.5491 164.637 59.8215 165.402 59.8215C166.167 59.8215 166.755 59.5491 167.165 59.0044C167.575 58.4596 167.78 57.6854 167.78 56.6816C167.78 55.6777 167.575 54.9035 167.165 54.3587Z"/>
<path d="M176.631 53.6334C175.749 53.6334 175.146 54.071 174.822 54.9463C174.651 55.4115 174.565 56.0297 174.565 56.8009C174.565 57.5354 174.651 58.1261 174.822 58.5729C175.134 59.4053 175.722 59.8215 176.585 59.8215C177.197 59.8215 177.631 59.6563 177.889 59.3257C178.146 58.9952 178.302 58.5668 178.357 58.0404L181.029 58.0404C180.967 58.8361 180.68 59.5889 180.166 60.2989C179.345 61.4435 178.13 62.0158 176.521 62.0158C174.911 62.0158 173.726 61.5384 172.967 60.5836C172.208 59.6287 171.829 58.3893 171.829 56.8652C171.829 55.1452 172.248 53.8078 173.087 52.853C173.925 51.8981 175.082 51.4207 176.557 51.4207C177.812 51.4207 178.839 51.7023 179.638 52.2654C180.436 52.8285 180.909 53.8231 181.056 55.2493L178.375 55.2493C178.326 54.8759 178.201 54.5393 177.999 54.2394C177.705 53.8354 177.249 53.6334 176.631 53.6334Z"/>
</g>
</g>
</svg>
