<?xml version="1.0" encoding="UTF-8" standalone="no"?>
<!DOCTYPE svg PUBLIC "-//W3C//DTD SVG 1.1//EN" "http://www.w3.org/Graphics/SVG/1.1/DTD/svg11.dtd">
<!-- Created with Vectornator (http://vectornator.io/) -->
<svg height="100%" stroke-miterlimit="10" style="fill-rule:nonzero;clip-rule:evenodd;stroke-linecap:round;stroke-linejoin:round;" version="1.1" viewBox="240.192 33.212 177.525 44.4825" width="100%" xml:space="preserve" xmlns="http://www.w3.org/2000/svg" xmlns:vectornator="http://vectornator.io" xmlns:xlink="http://www.w3.org/1999/xlink">
<defs/>
<g id="User4" vectornator:layerName="User4">
<path d="M240.192 40.7527C240.192 36.5881 244.538 33.212 249.899 33.212L408.009 33.212C413.371 33.212 417.717 36.5881 417.717 40.7527L417.717 70.1539C417.717 74.3185 413.371 77.6945 408.009 77.6945L249.899 77.6945C244.538 77.6945 240.192 74.3185 240.192 70.1539L240.192 40.7527Z" fill="#ebeeef" fill-rule="nonzero" opacity="1" stroke="none" vectornator:layerName="Rectangle 13"/>
<path d="M269.914 47.5716C271.212 48.5119 271.86 49.9049 271.86 51.7506C271.86 52.8824 271.577 53.8358 271.011 54.6106C270.681 55.0807 270.045 55.6815 269.105 56.4128L268.177 57.1311C267.673 57.5228 267.337 57.9799 267.172 58.5023C267.067 58.8331 267.011 59.3468 267.002 60.0433L263.476 60.0433C263.528 58.5719 263.668 57.5555 263.894 56.9939C264.12 56.4324 264.704 55.7859 265.644 55.0546L266.597 54.3102C266.911 54.0752 267.163 53.8183 267.355 53.5397C267.703 53.0609 267.877 52.5342 267.877 51.9596C267.877 51.2979 267.683 50.695 267.296 50.1508C266.909 49.6067 266.201 49.3346 265.174 49.3346C264.164 49.3346 263.448 49.6698 263.026 50.3402C262.603 51.0106 262.392 51.7071 262.392 52.4297L258.618 52.4297C258.723 49.9484 259.589 48.1898 261.217 47.1537C262.244 46.4921 263.507 46.1612 265.004 46.1612C266.972 46.1612 268.608 46.6314 269.914 47.5716ZM267.276 65.6066L263.385 65.6066L263.385 61.8324L267.276 61.8324L267.276 65.6066Z" fill="#595958" opacity="1" stroke="none" vectornator:layerName="Text 6"/>
<g fill="#595a5b" opacity="1" stroke="none" vectornator:layerName="Text 4">
<path d="M295.263 60.5189C294.431 61.9879 292.843 62.7224 290.498 62.7224C288.154 62.7224 286.563 61.9879 285.724 60.5189C285.277 59.7171 285.054 58.5969 285.054 57.1586L285.054 48.8404L287.928 48.8404L287.928 57.1586C287.928 58.0889 288.038 58.7683 288.258 59.1968C288.601 59.9558 289.348 60.3353 290.498 60.3353C291.643 60.3353 292.387 59.9558 292.729 59.1968C292.95 58.7683 293.06 58.0889 293.06 57.1586L293.06 48.8404L295.934 48.8404L295.934 57.1586C295.934 58.5969 295.71 59.7171 295.263 60.5189Z"/>
<path d="M301.084 54.3491C300.839 54.5266 300.717 54.7347 300.717 54.9734C300.717 55.2734 300.846 55.4906 301.103 55.6253C301.36 55.7661 302.269 56.0078 303.829 56.3506C304.87 56.5954 305.65 56.9658 306.171 57.4615C306.685 57.9634 306.942 58.5908 306.942 59.3437C306.942 60.3353 306.573 61.1447 305.836 61.7721C305.098 62.3995 303.958 62.7132 302.416 62.7132C300.843 62.7132 299.681 62.3811 298.931 61.717C298.181 61.0529 297.807 60.2067 297.807 59.1784L300.46 59.1784C300.515 59.6436 300.634 59.9741 300.818 60.17C301.142 60.5189 301.742 60.6933 302.618 60.6933C303.132 60.6933 303.54 60.6168 303.843 60.4638C304.146 60.3108 304.298 60.0812 304.298 59.7752C304.298 59.4814 304.175 59.258 303.93 59.105C303.686 58.952 302.777 58.6888 301.204 58.3154C300.071 58.0338 299.273 57.6819 298.807 57.2596C298.342 56.8433 298.11 56.2435 298.11 55.46C298.11 54.5358 298.472 53.7416 299.198 53.0775C299.923 52.4134 300.944 52.0814 302.259 52.0814C303.508 52.0814 304.526 52.3308 305.312 52.8296C306.099 53.3285 306.55 54.19 306.666 55.4141L304.05 55.4141C304.013 55.0775 303.918 54.8112 303.765 54.6154C303.478 54.2604 302.988 54.0829 302.296 54.0829C301.727 54.0829 301.323 54.1716 301.084 54.3491Z"/>
<path d="M312.919 62.704C311.646 62.704 310.523 62.2939 309.549 61.4737C308.576 60.6535 308.09 59.3192 308.09 57.4707C308.09 55.7385 308.529 54.4103 309.407 53.4861C310.285 52.5618 311.425 52.0997 312.827 52.0997C313.659 52.0997 314.409 52.2558 315.076 52.568C315.744 52.8801 316.294 53.3728 316.729 54.0461C317.121 54.6398 317.375 55.3284 317.491 56.1119C317.558 56.571 317.586 57.232 317.574 58.095L310.725 58.095C310.761 59.0989 311.076 59.8027 311.67 60.2067C312.031 60.4577 312.466 60.5831 312.974 60.5831C313.513 60.5831 313.95 60.4301 314.287 60.1241C314.47 59.9588 314.633 59.7293 314.773 59.4355L317.445 59.4355C317.378 60.0292 317.069 60.6321 316.518 61.2442C315.661 62.2174 314.461 62.704 312.919 62.704ZM312.827 54.2573C312.221 54.2573 311.751 54.447 311.418 54.8265C311.084 55.206 310.875 55.7202 310.789 56.369L314.856 56.369C314.813 55.6773 314.604 55.1525 314.227 54.7944C313.851 54.4363 313.384 54.2573 312.827 54.2573Z"/>
<path d="M324.68 54.7898C324.551 54.7837 324.447 54.7806 324.368 54.7806C323.315 54.7806 322.608 55.1234 322.247 55.8089C322.045 56.1945 321.944 56.7882 321.944 57.5901L321.944 62.3735L319.309 62.3735L319.309 52.366L321.806 52.366L321.806 54.1104C322.21 53.4432 322.562 52.9872 322.862 52.7424C323.352 52.3323 323.988 52.1273 324.772 52.1273C324.821 52.1273 324.862 52.1288 324.896 52.1318C324.929 52.1349 325.004 52.1395 325.121 52.1456L325.121 54.8265C324.955 54.8082 324.809 54.7959 324.68 54.7898Z"/>
<path d="M334.465 64.1271C334.746 64.3658 335.22 64.4852 335.888 64.4852C336.83 64.4852 337.461 64.1699 337.779 63.5395C337.987 63.1355 338.091 62.4561 338.091 61.5013L338.091 60.8586C337.84 61.287 337.571 61.6084 337.283 61.8226C336.763 62.2205 336.087 62.4194 335.254 62.4194C333.969 62.4194 332.942 61.968 332.174 61.0652C331.406 60.1623 331.022 58.9397 331.022 57.3973C331.022 55.9099 331.392 54.6597 332.133 53.6467C332.873 52.6338 333.923 52.1273 335.282 52.1273C335.784 52.1273 336.221 52.2038 336.595 52.3568C337.231 52.62 337.745 53.1035 338.137 53.8074L338.137 52.366L340.68 52.366L340.68 61.8593C340.68 63.1508 340.463 64.124 340.028 64.779C339.282 65.9052 337.849 66.4683 335.732 66.4683C334.452 66.4683 333.409 66.2173 332.601 65.7154C331.793 65.2135 331.346 64.4637 331.26 63.466L334.106 63.466C334.18 63.7721 334.299 63.9924 334.465 64.1271ZM335.906 54.4134C334.988 54.4134 334.354 54.8449 334.006 55.7079C333.822 56.167 333.73 56.7332 333.73 57.4064C333.73 57.9879 333.828 58.5051 334.024 58.9581C334.379 59.8027 335.015 60.2251 335.934 60.2251C336.546 60.2251 337.063 59.994 337.485 59.5319C337.908 59.0698 338.119 58.3338 338.119 57.3238C338.119 56.3751 337.918 55.6528 337.517 55.1571C337.116 54.6613 336.579 54.4134 335.906 54.4134Z"/>
<path d="M349.43 57.8104L349.43 52.366L352.083 52.366L352.083 62.3735L349.54 62.3735L349.54 60.9596C349.516 60.9902 349.454 61.082 349.356 61.235C349.259 61.388 349.142 61.5227 349.008 61.639C348.597 62.0062 348.201 62.2572 347.819 62.3918C347.436 62.5265 346.988 62.5938 346.474 62.5938C344.992 62.5938 343.995 62.0613 343.481 60.9963C343.193 60.4087 343.049 59.5426 343.049 58.398L343.049 52.366L345.73 52.366L345.73 58.398C345.73 58.9673 345.797 59.3957 345.932 59.6834C346.171 60.1914 346.639 60.4454 347.337 60.4454C348.23 60.4454 348.842 60.0843 349.173 59.362C349.344 58.9703 349.43 58.4531 349.43 57.8104Z"/>
<path d="M357.298 52.366L357.298 62.3735L354.645 62.3735L354.645 52.366L357.298 52.366ZM357.298 48.7578L357.298 51.1724L354.645 51.1724L354.645 48.7578L357.298 48.7578Z"/>
<path d="M365.121 62.2817C364.643 62.551 364.049 62.6856 363.339 62.6856C362.17 62.6856 361.186 62.2128 360.388 61.2671C359.589 60.3215 359.19 59.108 359.19 57.6268C359.19 55.9191 359.583 54.5756 360.369 53.5963C361.156 52.6169 362.207 52.1273 363.523 52.1273C364.129 52.1273 364.668 52.2604 365.139 52.5266C365.61 52.7929 365.993 53.1617 366.287 53.633L366.287 48.8588L368.94 48.8588L368.94 62.3735L366.397 62.3735L366.397 60.9871C366.023 61.5808 365.598 62.0124 365.121 62.2817ZM364.111 54.4134C363.346 54.4134 362.784 54.7026 362.426 55.281C362.068 55.8594 361.889 56.5771 361.889 57.434C361.889 58.3582 362.071 59.0973 362.435 59.6513C362.799 60.2052 363.352 60.4822 364.092 60.4822C364.833 60.4822 365.396 60.2067 365.782 59.6558C366.167 59.105 366.36 58.3919 366.36 57.5166C366.36 56.2925 366.051 55.4172 365.433 54.8908C365.053 54.5725 364.613 54.4134 364.111 54.4134Z"/>
<path d="M375.358 62.704C374.085 62.704 372.961 62.2939 371.988 61.4737C371.015 60.6535 370.528 59.3192 370.528 57.4707C370.528 55.7385 370.967 54.4103 371.846 53.4861C372.724 52.5618 373.864 52.0997 375.266 52.0997C376.098 52.0997 376.848 52.2558 377.515 52.568C378.182 52.8801 378.733 53.3728 379.168 54.0461C379.56 54.6398 379.814 55.3284 379.93 56.1119C379.997 56.571 380.025 57.232 380.013 58.095L373.163 58.095C373.2 59.0989 373.515 59.8027 374.109 60.2067C374.47 60.4577 374.905 60.5831 375.413 60.5831C375.951 60.5831 376.389 60.4301 376.726 60.1241C376.909 59.9588 377.071 59.7293 377.212 59.4355L379.884 59.4355C379.817 60.0292 379.508 60.6321 378.957 61.2442C378.1 62.2174 376.9 62.704 375.358 62.704ZM375.266 54.2573C374.66 54.2573 374.19 54.447 373.857 54.8265C373.523 55.206 373.313 55.7202 373.228 56.369L377.295 56.369C377.252 55.6773 377.042 55.1525 376.666 54.7944C376.29 54.4363 375.823 54.2573 375.266 54.2573Z"/>
</g>
</g>
</svg>
